<mxfile host="app.diagrams.net" modified="2023-10-14T21:06:16.557Z" agent="Mozilla/5.0 (Windows NT 10.0; Win64; x64) AppleWebKit/537.36 (KHTML, like Gecko) Chrome/118.0.0.0 Safari/537.36" etag="xVyeuFD0Tivrmo1CogMo" version="22.0.4" type="device">
  <diagram name="Page-1" id="yp4P-L7eFvQuV62ExeIx">
    <mxGraphModel dx="712" dy="772" grid="1" gridSize="10" guides="1" tooltips="1" connect="1" arrows="1" fold="1" page="1" pageScale="1" pageWidth="826" pageHeight="1169" math="0" shadow="0">
      <root>
        <mxCell id="0" />
        <mxCell id="1" parent="0" />
        <mxCell id="ZSc8fM24E5Cx6DzQjQsu-37" value="" style="edgeStyle=orthogonalEdgeStyle;rounded=0;orthogonalLoop=1;jettySize=auto;html=1;startArrow=ERmandOne;startFill=0;endArrow=ERzeroToMany;endFill=0;" parent="1" source="2" target="ZSc8fM24E5Cx6DzQjQsu-36" edge="1">
          <mxGeometry relative="1" as="geometry">
            <Array as="points">
              <mxPoint x="280" y="200" />
              <mxPoint x="280" y="200" />
            </Array>
          </mxGeometry>
        </mxCell>
        <mxCell id="ZSc8fM24E5Cx6DzQjQsu-40" value="has" style="edgeLabel;html=1;align=center;verticalAlign=middle;resizable=0;points=[];" parent="ZSc8fM24E5Cx6DzQjQsu-37" vertex="1" connectable="0">
          <mxGeometry x="-0.4168" y="1" relative="1" as="geometry">
            <mxPoint y="16" as="offset" />
          </mxGeometry>
        </mxCell>
        <mxCell id="2" value="user" style="shape=table;startSize=75;container=1;collapsible=0;childLayout=tableLayout;fixedRows=1;rowLines=1;fontStyle=1;align=center;resizeLast=1;" parent="1" vertex="1">
          <mxGeometry x="250" y="70" width="100" height="75" as="geometry" />
        </mxCell>
        <mxCell id="ZSc8fM24E5Cx6DzQjQsu-16" value="" style="edgeStyle=orthogonalEdgeStyle;rounded=0;orthogonalLoop=1;jettySize=auto;html=1;endArrow=ERmandOne;endFill=0;startArrow=ERzeroToMany;startFill=0;exitX=0.5;exitY=0;exitDx=0;exitDy=0;" parent="1" source="3" target="ZSc8fM24E5Cx6DzQjQsu-15" edge="1">
          <mxGeometry relative="1" as="geometry">
            <mxPoint x="500" y="200" as="sourcePoint" />
            <Array as="points" />
          </mxGeometry>
        </mxCell>
        <mxCell id="ZSc8fM24E5Cx6DzQjQsu-34" value="connected to" style="edgeLabel;html=1;align=center;verticalAlign=middle;resizable=0;points=[];" parent="ZSc8fM24E5Cx6DzQjQsu-16" vertex="1" connectable="0">
          <mxGeometry x="-0.0552" relative="1" as="geometry">
            <mxPoint as="offset" />
          </mxGeometry>
        </mxCell>
        <mxCell id="ZSc8fM24E5Cx6DzQjQsu-22" value="" style="edgeStyle=orthogonalEdgeStyle;rounded=0;orthogonalLoop=1;jettySize=auto;html=1;startArrow=ERmandOne;startFill=0;endArrow=ERmandOne;endFill=0;" parent="1" source="ZSc8fM24E5Cx6DzQjQsu-12" target="ZSc8fM24E5Cx6DzQjQsu-21" edge="1">
          <mxGeometry relative="1" as="geometry">
            <Array as="points">
              <mxPoint x="700" y="107" />
              <mxPoint x="750" y="107" />
              <mxPoint x="750" y="137" />
            </Array>
          </mxGeometry>
        </mxCell>
        <mxCell id="ZSc8fM24E5Cx6DzQjQsu-29" value="to" style="edgeLabel;html=1;align=center;verticalAlign=middle;resizable=0;points=[];" parent="ZSc8fM24E5Cx6DzQjQsu-22" vertex="1" connectable="0">
          <mxGeometry x="0.0517" y="-2" relative="1" as="geometry">
            <mxPoint y="-2" as="offset" />
          </mxGeometry>
        </mxCell>
        <mxCell id="ZSc8fM24E5Cx6DzQjQsu-24" value="" style="edgeStyle=orthogonalEdgeStyle;rounded=0;orthogonalLoop=1;jettySize=auto;html=1;startArrow=ERmandOne;startFill=0;endArrow=ERzeroToOne;endFill=0;" parent="1" source="3" target="ZSc8fM24E5Cx6DzQjQsu-23" edge="1">
          <mxGeometry relative="1" as="geometry" />
        </mxCell>
        <mxCell id="ZSc8fM24E5Cx6DzQjQsu-32" value="is" style="edgeLabel;html=1;align=center;verticalAlign=middle;resizable=0;points=[];" parent="ZSc8fM24E5Cx6DzQjQsu-24" vertex="1" connectable="0">
          <mxGeometry x="0.0046" y="-3" relative="1" as="geometry">
            <mxPoint y="-3" as="offset" />
          </mxGeometry>
        </mxCell>
        <mxCell id="ZSc8fM24E5Cx6DzQjQsu-27" value="" style="edgeStyle=orthogonalEdgeStyle;rounded=0;orthogonalLoop=1;jettySize=auto;html=1;exitX=0.5;exitY=1;exitDx=0;exitDy=0;startArrow=ERmandOne;startFill=0;endArrow=ERzeroToOne;endFill=0;" parent="1" source="3" target="ZSc8fM24E5Cx6DzQjQsu-26" edge="1">
          <mxGeometry relative="1" as="geometry">
            <mxPoint x="290" y="645" as="sourcePoint" />
            <Array as="points">
              <mxPoint x="500" y="377" />
            </Array>
          </mxGeometry>
        </mxCell>
        <mxCell id="ZSc8fM24E5Cx6DzQjQsu-33" value="is" style="edgeLabel;html=1;align=center;verticalAlign=middle;resizable=0;points=[];" parent="ZSc8fM24E5Cx6DzQjQsu-27" vertex="1" connectable="0">
          <mxGeometry x="0.2372" y="2" relative="1" as="geometry">
            <mxPoint x="-2" y="-1" as="offset" />
          </mxGeometry>
        </mxCell>
        <mxCell id="3" value="transaction" style="shape=table;startSize=75;container=1;collapsible=0;childLayout=tableLayout;fixedRows=1;rowLines=1;fontStyle=1;align=center;resizeLast=1;" parent="1" vertex="1">
          <mxGeometry x="450" y="210" width="100" height="75" as="geometry" />
        </mxCell>
        <mxCell id="4" value="category" style="shape=table;startSize=75;container=1;collapsible=0;childLayout=tableLayout;fixedRows=1;rowLines=1;fontStyle=1;align=center;resizeLast=1;" parent="1" vertex="1">
          <mxGeometry x="650" y="340" width="100" height="75" as="geometry" />
        </mxCell>
        <mxCell id="ZSc8fM24E5Cx6DzQjQsu-13" value="" style="edgeStyle=orthogonalEdgeStyle;rounded=0;orthogonalLoop=1;jettySize=auto;html=1;startArrow=ERmandOne;startFill=0;endArrow=ERoneToMany;endFill=0;exitX=1;exitY=0.5;exitDx=0;exitDy=0;" parent="1" source="2" target="ZSc8fM24E5Cx6DzQjQsu-12" edge="1">
          <mxGeometry relative="1" as="geometry" />
        </mxCell>
        <mxCell id="ZSc8fM24E5Cx6DzQjQsu-14" value="has" style="edgeLabel;html=1;align=center;verticalAlign=middle;resizable=0;points=[];" parent="ZSc8fM24E5Cx6DzQjQsu-13" vertex="1" connectable="0">
          <mxGeometry x="-0.1833" y="-1" relative="1" as="geometry">
            <mxPoint x="9" y="-1" as="offset" />
          </mxGeometry>
        </mxCell>
        <mxCell id="6" value="has" style="startArrow=ERmandOne;startSize=6;;endArrow=ERzeroToMany;endSize=6;;exitX=0.5;exitY=1;rounded=0;endFill=0;strokeColor=default;jumpSize=3;" parent="1" source="2" edge="1">
          <mxGeometry x="0.1176" relative="1" as="geometry">
            <Array as="points">
              <mxPoint x="300" y="180" />
              <mxPoint x="420" y="180" />
              <mxPoint x="460" y="180" />
            </Array>
            <mxPoint x="460" y="210" as="targetPoint" />
            <mxPoint as="offset" />
          </mxGeometry>
        </mxCell>
        <mxCell id="7" value="belongs to" style="startArrow=ERmandOne;startSize=6;;endArrow=ERmandOne;endSize=6;;entryX=0.5;entryY=0;rounded=0;endFill=0;entryDx=0;entryDy=0;" parent="1" source="ZSc8fM24E5Cx6DzQjQsu-23" target="4" edge="1">
          <mxGeometry x="-0.1429" relative="1" as="geometry">
            <Array as="points" />
            <mxPoint as="offset" />
          </mxGeometry>
        </mxCell>
        <mxCell id="ZSc8fM24E5Cx6DzQjQsu-8" value="" style="endArrow=ERzeroToMany;html=1;rounded=0;entryX=0;entryY=0.5;entryDx=0;entryDy=0;startArrow=ERmandOne;startFill=0;endFill=0;exitX=0.5;exitY=1;exitDx=0;exitDy=0;" parent="1" source="4" target="4" edge="1">
          <mxGeometry width="50" height="50" relative="1" as="geometry">
            <mxPoint x="800" y="645" as="sourcePoint" />
            <mxPoint x="730" y="751.25" as="targetPoint" />
            <Array as="points">
              <mxPoint x="700" y="440" />
              <mxPoint x="620" y="440" />
              <mxPoint x="620" y="378" />
            </Array>
          </mxGeometry>
        </mxCell>
        <mxCell id="ZSc8fM24E5Cx6DzQjQsu-9" value="Child Of" style="edgeLabel;html=1;align=center;verticalAlign=middle;resizable=0;points=[];" parent="ZSc8fM24E5Cx6DzQjQsu-8" vertex="1" connectable="0">
          <mxGeometry x="-0.5107" y="-2" relative="1" as="geometry">
            <mxPoint x="-17" y="2" as="offset" />
          </mxGeometry>
        </mxCell>
        <mxCell id="ZSc8fM24E5Cx6DzQjQsu-28" value="from" style="edgeStyle=orthogonalEdgeStyle;rounded=0;orthogonalLoop=1;jettySize=auto;html=1;endArrow=ERmandOne;endFill=0;startArrow=ERmandOne;startFill=0;" parent="1" source="ZSc8fM24E5Cx6DzQjQsu-12" target="ZSc8fM24E5Cx6DzQjQsu-21" edge="1">
          <mxGeometry relative="1" as="geometry">
            <mxPoint x="660" y="180" as="targetPoint" />
            <Array as="points">
              <mxPoint x="540" y="180" />
              <mxPoint x="700" y="180" />
            </Array>
          </mxGeometry>
        </mxCell>
        <mxCell id="ZSc8fM24E5Cx6DzQjQsu-12" value="wallet" style="shape=table;startSize=75;container=1;collapsible=0;childLayout=tableLayout;fixedRows=1;rowLines=1;fontStyle=1;align=center;resizeLast=1;" parent="1" vertex="1">
          <mxGeometry x="450" y="70" width="100" height="75" as="geometry" />
        </mxCell>
        <mxCell id="ZSc8fM24E5Cx6DzQjQsu-15" value="transaction" style="shape=table;startSize=75;container=1;collapsible=0;childLayout=tableLayout;fixedRows=1;rowLines=1;fontStyle=1;align=center;resizeLast=1;" parent="ZSc8fM24E5Cx6DzQjQsu-12" vertex="1" visible="0">
          <mxGeometry x="10" width="100" height="75" as="geometry" />
        </mxCell>
        <mxCell id="ZSc8fM24E5Cx6DzQjQsu-17" value="transaction" style="shape=table;startSize=75;container=1;collapsible=0;childLayout=tableLayout;fixedRows=1;rowLines=1;fontStyle=1;align=center;resizeLast=1;" parent="ZSc8fM24E5Cx6DzQjQsu-12" vertex="1" visible="0">
          <mxGeometry x="10" y="75" width="100" height="75" as="geometry" />
        </mxCell>
        <mxCell id="ZSc8fM24E5Cx6DzQjQsu-19" value="transaction" style="shape=table;startSize=75;container=1;collapsible=0;childLayout=tableLayout;fixedRows=1;rowLines=1;fontStyle=1;align=center;resizeLast=1;" parent="ZSc8fM24E5Cx6DzQjQsu-12" vertex="1" visible="0">
          <mxGeometry x="10" y="65" width="100" height="75" as="geometry" />
        </mxCell>
        <mxCell id="ZSc8fM24E5Cx6DzQjQsu-21" value="transfer" style="shape=table;startSize=75;container=1;collapsible=0;childLayout=tableLayout;fixedRows=1;rowLines=1;fontStyle=1;align=center;resizeLast=1;" parent="1" vertex="1">
          <mxGeometry x="650" y="70" width="100" height="75" as="geometry" />
        </mxCell>
        <mxCell id="ZSc8fM24E5Cx6DzQjQsu-23" value="expense" style="shape=table;startSize=75;container=1;collapsible=0;childLayout=tableLayout;fixedRows=1;rowLines=1;fontStyle=1;align=center;resizeLast=1;" parent="1" vertex="1">
          <mxGeometry x="650" y="210" width="100" height="75" as="geometry" />
        </mxCell>
        <mxCell id="ZSc8fM24E5Cx6DzQjQsu-26" value="income" style="shape=table;startSize=75;container=1;collapsible=0;childLayout=tableLayout;fixedRows=1;rowLines=1;fontStyle=1;align=center;resizeLast=1;" parent="1" vertex="1">
          <mxGeometry x="450" y="340" width="100" height="75" as="geometry" />
        </mxCell>
        <mxCell id="ZSc8fM24E5Cx6DzQjQsu-38" style="edgeStyle=orthogonalEdgeStyle;rounded=0;orthogonalLoop=1;jettySize=auto;html=1;entryX=0;entryY=0.5;entryDx=0;entryDy=0;startArrow=ERmandOne;startFill=0;endArrow=ERmandOne;endFill=0;" parent="1" source="ZSc8fM24E5Cx6DzQjQsu-36" target="ZSc8fM24E5Cx6DzQjQsu-26" edge="1">
          <mxGeometry relative="1" as="geometry">
            <Array as="points">
              <mxPoint x="300" y="378" />
            </Array>
          </mxGeometry>
        </mxCell>
        <mxCell id="ZSc8fM24E5Cx6DzQjQsu-39" value="has" style="edgeLabel;html=1;align=center;verticalAlign=middle;resizable=0;points=[];" parent="ZSc8fM24E5Cx6DzQjQsu-38" vertex="1" connectable="0">
          <mxGeometry x="0.255" y="1" relative="1" as="geometry">
            <mxPoint x="11" y="1" as="offset" />
          </mxGeometry>
        </mxCell>
        <mxCell id="ZSc8fM24E5Cx6DzQjQsu-36" value="income source" style="shape=table;startSize=75;container=1;collapsible=0;childLayout=tableLayout;fixedRows=1;rowLines=1;fontStyle=1;align=center;resizeLast=1;" parent="1" vertex="1">
          <mxGeometry x="250" y="210" width="100" height="75" as="geometry" />
        </mxCell>
      </root>
    </mxGraphModel>
  </diagram>
</mxfile>
